<svg width="140" height="140" viewBox="0 0 140 140" fill="none" xmlns="http://www.w3.org/2000/svg">
<rect width="140" height="25" fill="#DEDEDE"/>
<rect x="0.5" y="0.5" width="139" height="139" stroke="#C4C4C4"/>
<line x1="14" y1="42.5" x2="127" y2="42.5" stroke="#4D4F53" stroke-width="3"/>
<rect x="89.5" y="53.5" width="37" height="27" stroke="#4D4F53"/>
<line x1="14" y1="53.5" x2="84" y2="53.5" stroke="#4D4F53"/>
<line x1="14" y1="62.5" x2="84" y2="62.5" stroke="#4D4F53"/>
<line x1="14" y1="71.5" x2="84" y2="71.5" stroke="#4D4F53"/>
<line x1="14" y1="80.5" x2="84" y2="80.5" stroke="#4D4F53"/>
<line x1="14" y1="89.5" x2="127" y2="89.5" stroke="#4D4F53"/>
<line x1="14" y1="98.5" x2="127" y2="98.5" stroke="#4D4F53"/>
<line x1="14" y1="107.5" x2="19" y2="107.5" stroke="#4D4F53"/>
<line x1="23" y1="107.5" x2="53" y2="107.5" stroke="#4D4F53"/>
<line x1="57" y1="107.5" x2="127" y2="107.5" stroke="#4D4F53"/>
<line x1="14" y1="116.5" x2="19" y2="116.5" stroke="#4D4F53"/>
<line x1="23" y1="116.5" x2="53" y2="116.5" stroke="#4D4F53"/>
<line x1="57" y1="116.5" x2="129" y2="116.5" stroke="#4D4F53"/>
</svg>
