<?xml version="1.0" standalone="no"?><!DOCTYPE svg PUBLIC "-//W3C//DTD SVG 1.1//EN" "http://www.w3.org/Graphics/SVG/1.1/DTD/svg11.dtd" ><svg xmlns="http://www.w3.org/2000/svg"><metadata>Generated by Glyphter</metadata><defs><font id="Glyphter" horiz-adv-x="0"><font-face units-per-em="1024" ascent="1024" descent="0" font-family="Glyphter" font-weight="normal" /><missing-glyph horiz-adv-x="0" /><glyph unicode="&#x0041;" d="M156.89,237.259C156.89,237.259,512.458,592.828,512.458,592.828C512.458,592.828,868.026,237.259,868.026,237.259C876.549,228.737,886.538,222.047,897.627,217.465C908.715,212.883,920.629,210.5,932.634,210.5C944.639,210.5,956.552,212.883,967.641,217.465C978.729,222.047,988.718,228.737,997.241,237.259C1005.763,245.782,1012.453,255.771,1017.035,266.859C1021.617,277.948,1024,289.861,1024,301.866C1024,313.871,1021.617,325.785,1017.035,336.873C1012.453,347.962,1005.763,357.951,997.241,366.474C997.241,366.474,576.607,787.107,576.607,787.107C568.084,795.63,558.096,802.32,547.007,806.902C535.918,811.575,524.005,813.866,512,813.866C499.995,813.866,488.082,811.575,476.993,806.902C465.904,802.32,455.916,795.63,447.393,787.107C447.393,787.107,26.759,366.474,26.759,366.474C18.237,357.951,11.547,347.962,6.965,336.873C2.291,325.785,0,313.871,0,301.866C0,289.861,2.291,277.948,6.965,266.859C11.547,255.771,18.237,245.782,26.759,237.259C62.499,202.436,121.15,201.519,156.89,237.259C156.89,237.259,156.89,237.259,156.89,237.259" class="myicon-arrow-up"/><glyph unicode="&#x0042;" d="M215.568,0C215.568,0,53.882,0,53.882,0C39.573,0,25.87,5.659,15.764,15.764C5.659,25.91,0,39.613,0,53.882C0,53.882,0,485.059,0,485.059C0,499.368,5.659,513.071,15.764,523.177C25.87,533.282,39.573,538.941,53.882,538.941C53.882,538.941,215.568,538.941,215.568,538.941C229.878,538.941,243.58,533.282,253.686,523.177C263.791,513.071,269.45,499.368,269.45,485.059C269.45,485.059,269.45,53.882,269.45,53.882C269.45,39.613,263.791,25.91,253.686,15.764C243.58,5.659,229.878,0,215.568,0C215.568,0,215.568,0,215.568,0M592.823,0C592.823,0,431.137,0,431.137,0C416.868,0,403.165,5.659,393.059,15.764C382.954,25.91,377.255,39.613,377.255,53.882C377.255,53.882,377.255,970.118,377.255,970.118C377.255,984.427,382.954,998.13,393.059,1008.236C403.165,1018.341,416.868,1024,431.137,1024C431.137,1024,592.823,1024,592.823,1024C607.132,1024,620.835,1018.341,630.941,1008.236C641.046,998.13,646.745,984.427,646.745,970.118C646.745,970.118,646.745,53.882,646.745,53.882C646.745,39.613,641.046,25.91,630.941,15.764C620.835,5.659,607.132,0,592.823,0C592.823,0,592.823,0,592.823,0M970.118,0C970.118,0,808.432,0,808.432,0C794.122,0,780.42,5.659,770.314,15.764C760.209,25.91,754.509,39.613,754.509,53.882C754.509,53.882,754.509,646.745,754.509,646.745C754.509,661.055,760.209,674.758,770.314,684.863C780.42,694.968,794.122,700.627,808.432,700.627C808.432,700.627,970.118,700.627,970.118,700.627C984.387,700.627,998.09,694.968,1008.236,684.863C1018.341,674.758,1024,661.055,1024,646.745C1024,646.745,1024,53.882,1024,53.882C1024,39.613,1018.341,25.91,1008.236,15.764C998.09,5.659,984.387,0,970.118,0C970.118,0,970.118,0,970.118,0" class="myicon-bar"/><glyph unicode="&#x0043;" d="M63.996,128.5C63.996,128.5,0,128.5,0,192.496C0,256.492,63.996,448.48,383.976,448.48C703.956,448.48,767.952,256.492,767.952,192.496C767.952,128.5,703.956,128.5,703.956,128.5C703.956,128.5,63.996,128.5,63.996,128.5C63.996,128.5,63.996,128.5,63.996,128.5M383.976,512.476C434.885,512.476,483.714,532.699,519.744,568.696C555.741,604.726,575.964,653.555,575.964,704.464C575.964,755.373,555.741,804.202,519.744,840.232C483.714,876.229,434.885,896.452,383.976,896.452C333.067,896.452,284.238,876.229,248.208,840.232C212.211,804.202,191.988,755.373,191.988,704.464C191.988,653.555,212.211,604.726,248.208,568.696C284.238,532.699,333.067,512.476,383.976,512.476C383.976,512.476,383.976,512.476,383.976,512.476M1014.593,695.121C1017.568,692.145,1019.936,688.625,1021.536,684.721C1023.168,680.849,1024,676.69,1024,672.466C1024,668.242,1023.168,664.083,1021.536,660.211C1019.936,656.307,1017.568,652.787,1014.593,649.811C1014.593,649.811,822.605,457.823,822.605,457.823C819.629,454.848,816.109,452.48,812.205,450.88C808.333,449.248,804.174,448.416,799.95,448.416C795.758,448.416,791.567,449.248,787.695,450.88C783.791,452.48,780.271,454.848,777.295,457.823C777.295,457.823,681.301,553.817,681.301,553.817C675.286,559.833,671.926,567.961,671.926,576.472C671.926,584.983,675.286,593.111,681.301,599.127C687.317,605.142,695.445,608.502,703.956,608.502C712.467,608.502,720.595,605.142,726.611,599.127C726.611,599.127,799.95,525.723,799.95,525.723C799.95,525.723,969.283,695.121,969.283,695.121C972.259,698.096,975.779,700.464,979.683,702.064C983.555,703.696,987.746,704.528,991.938,704.528C996.162,704.528,1000.321,703.696,1004.193,702.064C1008.097,700.464,1011.617,698.096,1014.593,695.121C1014.593,695.121,1014.593,695.121,1014.593,695.121" class="myicon-check-in"/><glyph unicode="&#x0044;" d="M136.183,114.274C136.183,51.7,192.613,0.5,261.587,0.5C261.587,0.5,763.127,0.5,763.127,0.5C832.101,0.5,888.494,51.7,888.494,114.274C888.494,114.274,888.494,796.953,888.494,796.953C888.494,796.953,136.183,796.953,136.183,796.953C136.183,796.953,136.183,114.274,136.183,114.274C136.183,114.274,136.183,114.274,136.183,114.274M261.587,683.179C261.587,683.179,763.127,683.179,763.127,683.179C763.127,683.179,763.127,114.274,763.127,114.274C763.127,114.274,261.587,114.274,261.587,114.274C261.587,114.274,261.587,683.179,261.587,683.179C261.587,683.179,261.587,683.179,261.587,683.179M731.786,967.595C731.786,967.595,669.066,1024.5,669.066,1024.5C669.066,1024.5,355.612,1024.5,355.612,1024.5C355.612,1024.5,292.929,967.595,292.929,967.595C292.929,967.595,73.5,967.595,73.5,967.595C73.5,967.595,73.5,853.821,73.5,853.821C73.5,853.821,951.214,853.821,951.214,853.821C951.214,853.821,951.214,967.595,951.214,967.595C951.214,967.595,731.786,967.595,731.786,967.595C731.786,967.595,731.786,967.595,731.786,967.595M386.954,114.274C386.954,114.274,386.954,683.179,386.954,683.179C386.954,683.179,449.637,683.179,449.637,683.179C449.637,683.179,449.637,114.274,449.637,114.274C449.637,114.274,386.954,114.274,386.954,114.274C386.954,114.274,386.954,114.274,386.954,114.274M575.041,114.274C575.041,114.274,575.041,683.179,575.041,683.179C575.041,683.179,637.724,683.179,637.724,683.179C637.724,683.179,637.724,114.274,637.724,114.274C637.724,114.274,575.041,114.274,575.041,114.274C575.041,114.274,575.041,114.274,575.041,114.274" class="myicon-delete"/><glyph unicode="&#x0045;" d="M614.882,1023.996C614.882,1023.996,205.054,1023.996,205.054,1023.996C191.572,1024.112,178.244,1021.538,165.761,1016.43C153.316,1011.36,141.985,1003.831,132.46,994.306C122.896,984.819,115.368,973.526,110.221,961.082C105.074,948.637,102.462,935.309,102.5,921.827C102.5,921.827,102.5,102.17,102.5,102.17C102.5,88.726,105.151,75.398,110.298,62.992C115.483,50.547,123.049,39.293,132.575,29.806C142.101,20.281,153.393,12.791,165.838,7.682C178.282,2.574,191.61,-0.038,205.054,0C205.054,0,819.605,0,819.605,0C833.048,-0.038,846.376,2.574,858.821,7.682C871.266,12.791,882.558,20.281,892.083,29.806C901.609,39.293,909.176,50.547,914.361,62.992C919.508,75.398,922.158,88.726,922.158,102.17C922.158,102.17,922.158,716.721,922.158,716.721C922.158,716.721,614.882,1023.996,614.882,1023.996C614.882,1023.996,614.882,1023.996,614.882,1023.996M563.414,665.636C563.414,665.636,563.414,947.177,563.414,947.177C563.414,947.177,845.339,665.636,845.339,665.636C845.339,665.636,563.414,665.636,563.414,665.636C563.414,665.636,563.414,665.636,563.414,665.636M761.991,449.775C761.991,449.775,659.822,449.775,659.822,449.775C659.822,449.775,659.822,251.966,659.822,251.966C659.822,251.966,557.652,251.966,557.652,251.966C557.652,251.966,710.906,104.09,710.906,104.09C710.906,104.09,864.16,251.966,864.16,251.966C864.16,251.966,761.991,251.966,761.991,251.966C761.991,251.966,761.991,449.775,761.991,449.775C761.991,449.775,761.991,449.775,761.991,449.775M230.02,125.983C230.02,125.983,189.306,165.545,189.306,165.545C189.306,165.545,460.861,427.498,460.861,427.498C460.861,427.498,501.575,388.32,501.575,388.32C501.575,388.32,230.02,125.983,230.02,125.983C230.02,125.983,230.02,125.983,230.02,125.983M189.306,388.32C189.306,388.32,230.02,427.498,230.02,427.498C230.02,427.498,501.575,165.545,501.575,165.545C501.575,165.545,460.861,125.983,460.861,125.983C460.861,125.983,189.306,388.32,189.306,388.32C189.306,388.32,189.306,388.32,189.306,388.32" class="myicon-delete-excel"/><glyph unicode="&#x0046;" d="M0.5,922.1C0.5,978.42,46.58,1024.5,102.9,1024.5C102.9,1024.5,819.7,1024.5,819.7,1024.5C819.7,1024.5,1024.5,819.7,1024.5,819.7C1024.5,819.7,1024.5,102.9,1024.5,102.9C1024.5,75.764,1013.705,49.695,994.505,30.495C975.305,11.295,949.236,0.5,922.1,0.5C922.1,0.5,102.9,0.5,102.9,0.5C75.721,0.5,49.695,11.295,30.495,30.495C11.295,49.695,0.5,75.764,0.5,102.9C0.5,102.9,0.5,922.1,0.5,922.1C0.5,922.1,0.5,922.1,0.5,922.1M256.5,922.1C256.5,922.1,256.5,614.9,256.5,614.9C256.5,614.9,768.5,614.9,768.5,614.9C768.5,614.9,768.5,922.1,768.5,922.1C768.5,922.1,256.5,922.1,256.5,922.1C256.5,922.1,256.5,922.1,256.5,922.1M563.7,870.9C563.7,870.9,717.3,870.9,717.3,870.9C717.3,870.9,717.3,666.1,717.3,666.1C717.3,666.1,563.7,666.1,563.7,666.1C563.7,666.1,563.7,870.9,563.7,870.9C563.7,870.9,563.7,870.9,563.7,870.9" class="myicon-disk"/><glyph unicode="&#x0047;" d="M0,201.361C0,201.361,0,28.455,0,28.455C0,12.5,12.5,0,28.455,0C28.455,0,201.361,0,201.361,0C208.742,0,216.165,2.858,221.284,8.532C221.284,8.532,842.433,629.127,842.433,629.127C842.433,629.127,629.127,842.433,629.127,842.433C629.127,842.433,8.532,221.839,8.532,221.839C2.858,216.165,0,209.339,0,201.361C0,201.361,0,201.361,0,201.361M1007.362,794.055C1012.652,799.345,1016.833,805.574,1019.691,812.485C1022.55,819.354,1024,826.734,1024,834.157C1024,841.623,1022.55,849.003,1019.691,855.872C1016.833,862.74,1012.652,869.011,1007.362,874.259C1007.362,874.259,874.259,1007.362,874.259,1007.362C869.011,1012.652,862.783,1016.833,855.872,1019.691C849.003,1022.55,841.623,1024,834.157,1024C826.734,1024,819.354,1022.55,812.485,1019.691C805.574,1016.833,799.345,1012.652,794.055,1007.362C794.055,1007.362,689.962,903.268,689.962,903.268C689.962,903.268,903.268,689.962,903.268,689.962C903.268,689.962,1007.362,794.055,1007.362,794.055C1007.362,794.055,1007.362,794.055,1007.362,794.055" class="myicon-edit"/><glyph unicode="&#x0048;" d="M665.9,870.4C665.9,870.4,819.5,870.4,819.5,870.4C819.5,870.4,742.7,768,742.7,768C742.7,768,665.9,870.4,665.9,870.4C665.9,870.4,665.9,870.4,665.9,870.4M153.9,1024C153.9,1024,870.7,1024,870.7,1024C897.836,1024,923.897,1013.197,943.097,993.997C962.297,974.797,973.1,948.736,973.1,921.6C973.1,921.6,973.1,102.4,973.1,102.4C973.1,45.568,927.532,0,870.7,0C870.7,0,153.9,0,153.9,0C126.764,0,100.703,10.803,81.503,30.003C62.303,49.203,51.5,75.264,51.5,102.4C51.5,102.4,51.5,921.6,51.5,921.6C51.5,977.92,97.58,1024,153.9,1024C153.9,1024,153.9,1024,153.9,1024M153.9,921.6C153.9,921.6,153.9,716.8,153.9,716.8C153.9,716.8,870.7,716.8,870.7,716.8C870.7,716.8,870.7,921.6,870.7,921.6C870.7,921.6,153.9,921.6,153.9,921.6C153.9,921.6,153.9,921.6,153.9,921.6M153.9,102.4C153.9,102.4,870.7,102.4,870.7,102.4C870.7,102.4,870.7,614.4,870.7,614.4C870.7,614.4,153.9,614.4,153.9,614.4C153.9,614.4,153.9,102.4,153.9,102.4C153.9,102.4,153.9,102.4,153.9,102.4M256.3,512C256.3,512,768.3,512,768.3,512C768.3,512,768.3,409.6,768.3,409.6C768.3,409.6,256.3,409.6,256.3,409.6C256.3,409.6,256.3,512,256.3,512C256.3,512,256.3,512,256.3,512M256.3,307.2C256.3,307.2,768.3,307.2,768.3,307.2C768.3,307.2,768.3,204.8,768.3,204.8C768.3,204.8,256.3,204.8,256.3,204.8C256.3,204.8,256.3,307.2,256.3,307.2C256.3,307.2,256.3,307.2,256.3,307.2" class="myicon-evnt-list"/><glyph unicode="&#x0049;" d="M614.481,1024C614.481,1024,204.873,1024,204.873,1024C148.042,1024,102.5,978.42,102.5,921.588C102.5,921.588,102.5,102.412,102.5,102.412C102.5,75.263,113.29,49.19,132.49,29.99C151.69,10.79,177.725,0,204.873,0C204.873,0,819.265,0,819.265,0C846.452,0,872.487,10.79,891.687,29.99C910.887,49.19,921.677,75.263,921.677,102.412C921.677,102.412,921.677,716.804,921.677,716.804C921.677,716.804,614.481,1024,614.481,1024C614.481,1024,614.481,1024,614.481,1024M539.717,134.667C539.717,134.667,539.717,237.079,539.717,237.079C539.717,237.079,334.932,237.079,334.932,237.079C334.932,237.079,334.932,338.953,334.932,338.953C334.932,338.953,539.717,338.953,539.717,338.953C539.717,338.953,539.717,441.364,539.717,441.364C539.717,441.364,693.315,287.766,693.315,287.766C693.315,287.766,539.717,134.667,539.717,134.667C539.717,134.667,539.717,134.667,539.717,134.667M563.294,665.617C563.294,665.617,563.294,947.201,563.294,947.201C563.294,947.201,844.878,665.617,844.878,665.617C844.878,665.617,563.294,665.617,563.294,665.617C563.294,665.617,563.294,665.617,563.294,665.617" class="myicon-excel"/><glyph unicode="&#x004a;" d="M614.882,1023.996C614.882,1023.996,205.054,1023.996,205.054,1023.996C191.572,1024.112,178.244,1021.538,165.761,1016.43C153.316,1011.36,141.985,1003.831,132.46,994.306C122.896,984.819,115.368,973.526,110.221,961.082C105.074,948.637,102.462,935.309,102.5,921.827C102.5,921.827,102.5,102.17,102.5,102.17C102.5,88.726,105.151,75.398,110.298,62.992C115.483,50.547,123.049,39.293,132.575,29.806C142.101,20.281,153.393,12.791,165.838,7.682C178.282,2.574,191.61,-0.038,205.054,0C205.054,0,819.605,0,819.605,0C833.048,-0.038,846.376,2.574,858.821,7.682C871.266,12.791,882.558,20.281,892.083,29.806C901.609,39.293,909.176,50.547,914.361,62.992C919.508,75.398,922.158,88.726,922.158,102.17C922.158,102.17,922.158,716.721,922.158,716.721C922.158,716.721,614.882,1023.996,614.882,1023.996C614.882,1023.996,614.882,1023.996,614.882,1023.996M563.414,665.636C563.414,665.636,563.414,947.177,563.414,947.177C563.414,947.177,845.339,665.636,845.339,665.636C845.339,665.636,563.414,665.636,563.414,665.636C563.414,665.636,563.414,665.636,563.414,665.636M761.991,449.775C761.991,449.775,659.822,449.775,659.822,449.775C659.822,449.775,659.822,251.966,659.822,251.966C659.822,251.966,557.652,251.966,557.652,251.966C557.652,251.966,710.906,104.09,710.906,104.09C710.906,104.09,864.16,251.966,864.16,251.966C864.16,251.966,761.991,251.966,761.991,251.966C761.991,251.966,761.991,449.775,761.991,449.775C761.991,449.775,761.991,449.775,761.991,449.775" class="myicon-export-excel"/><glyph unicode="&#x004b;" d="M933.335,622.232C933.335,622.232,617.369,622.232,617.369,622.232C617.369,622.232,617.369,951.386,617.369,951.386C617.369,991.773,585.912,1024.5,547.123,1024.5C547.123,1024.5,476.917,1024.5,476.917,1024.5C438.128,1024.5,406.712,991.773,406.712,951.386C406.712,951.386,406.712,622.232,406.712,622.232C406.712,622.232,90.746,622.232,90.746,622.232C51.957,622.232,20.5,589.464,20.5,549.077C20.5,549.077,20.5,475.964,20.5,475.964C20.5,435.577,51.957,402.809,90.746,402.809C90.746,402.809,406.712,402.809,406.712,402.809C406.712,402.809,406.712,73.655,406.712,73.655C406.712,33.268,438.169,0.5,476.917,0.5C476.917,0.5,547.123,0.5,547.123,0.5C585.912,0.5,617.369,33.268,617.369,73.655C617.369,73.655,617.369,402.809,617.369,402.809C617.369,402.809,933.335,402.809,933.335,402.809C972.124,402.809,1003.54,435.577,1003.54,475.964C1003.54,475.964,1003.54,549.077,1003.54,549.077C1003.54,589.464,972.124,622.232,933.335,622.232C933.335,622.232,933.335,622.232,933.335,622.232" class="myicon-fa-solid_plus"/><glyph unicode="&#x004c;" d="M967.611,953.389C967.611,953.389,967.611,811.167,967.611,811.167C967.611,811.167,455.611,811.167,455.611,811.167C455.611,811.167,455.611,953.389,455.611,953.389C455.611,953.389,967.611,953.389,967.611,953.389C967.611,953.389,967.611,953.389,967.611,953.389M1024.5,1024.5C1024.5,1024.5,398.722,1024.5,398.722,1024.5C398.722,1024.5,398.722,740.056,398.722,740.056C398.722,740.056,1024.5,740.056,1024.5,740.056C1024.5,740.056,1024.5,1024.5,1024.5,1024.5C1024.5,1024.5,1024.5,1024.5,1024.5,1024.5M0.5,1024.5C0.5,1024.5,284.944,1024.5,284.944,1024.5C284.944,1024.5,284.944,740.056,284.944,740.056C284.944,740.056,0.5,740.056,0.5,740.056C0.5,740.056,0.5,1024.5,0.5,1024.5C0.5,1024.5,0.5,1024.5,0.5,1024.5M967.611,583.611C967.611,583.611,967.611,441.389,967.611,441.389C967.611,441.389,455.611,441.389,455.611,441.389C455.611,441.389,455.611,583.611,455.611,583.611C455.611,583.611,967.611,583.611,967.611,583.611C967.611,583.611,967.611,583.611,967.611,583.611M1024.5,654.722C1024.5,654.722,398.722,654.722,398.722,654.722C398.722,654.722,398.722,370.278,398.722,370.278C398.722,370.278,1024.5,370.278,1024.5,370.278C1024.5,370.278,1024.5,654.722,1024.5,654.722C1024.5,654.722,1024.5,654.722,1024.5,654.722M0.5,654.722C0.5,654.722,284.944,654.722,284.944,654.722C284.944,654.722,284.944,370.278,284.944,370.278C284.944,370.278,0.5,370.278,0.5,370.278C0.5,370.278,0.5,654.722,0.5,654.722C0.5,654.722,0.5,654.722,0.5,654.722M967.611,213.833C967.611,213.833,967.611,71.611,967.611,71.611C967.611,71.611,455.611,71.611,455.611,71.611C455.611,71.611,455.611,213.833,455.611,213.833C455.611,213.833,967.611,213.833,967.611,213.833C967.611,213.833,967.611,213.833,967.611,213.833M1024.5,284.944C1024.5,284.944,398.722,284.944,398.722,284.944C398.722,284.944,398.722,0.5,398.722,0.5C398.722,0.5,1024.5,0.5,1024.5,0.5C1024.5,0.5,1024.5,284.944,1024.5,284.944C1024.5,284.944,1024.5,284.944,1024.5,284.944M0.5,284.944C0.5,284.944,284.944,284.944,284.944,284.944C284.944,284.944,284.944,0.5,284.944,0.5C284.944,0.5,0.5,0.5,0.5,0.5C0.5,0.5,0.5,284.944,0.5,284.944C0.5,284.944,0.5,284.944,0.5,284.944" class="myicon-form"/><glyph unicode="&#x004d;" d="C0,1022.343,0,839.486,0,839.486C0,839.486,1024,839.486,1024,839.486C1024,839.486,1024,1022.343,1024,1022.343C1024,1022.343,0,1022.343,0,1022.343M3.657,1018.686C3.657,1018.686,3.657,2,3.657,2C3.657,2,1020.343,2,1020.343,2C1020.343,2,1020.343,1018.686,1020.343,1018.686C1020.343,1018.686,3.657,1018.686,3.657,1018.686M102.4,711.486C102.4,711.486,102.4,733.429,102.4,733.429C102.4,733.429,928.914,733.429,928.914,733.429C928.914,733.429,928.914,711.486,928.914,711.486C928.914,711.486,102.4,711.486,102.4,711.486M654.629,631.029C654.629,631.029,654.629,433.543,654.629,433.543C654.629,433.543,925.257,433.543,925.257,433.543C925.257,433.543,925.257,631.029,925.257,631.029C925.257,631.029,654.629,631.029,654.629,631.029M102.4,631.029C102.4,631.029,102.4,631.029,102.4,631.029C102.4,631.029,614.4,631.029,614.4,631.029C614.4,631.029,614.4,631.029,614.4,631.029C614.4,631.029,102.4,631.029,102.4,631.029M102.4,565.2C102.4,565.2,102.4,565.2,102.4,565.2C102.4,565.2,614.4,565.2,614.4,565.2C614.4,565.2,614.4,565.2,614.4,565.2C614.4,565.2,102.4,565.2,102.4,565.2M102.4,499.371C102.4,499.371,102.4,499.371,102.4,499.371C102.4,499.371,614.4,499.371,614.4,499.371C614.4,499.371,614.4,499.371,614.4,499.371C614.4,499.371,102.4,499.371,102.4,499.371M102.4,433.543C102.4,433.543,102.4,433.543,102.4,433.543C102.4,433.543,614.4,433.543,614.4,433.543C614.4,433.543,614.4,433.543,614.4,433.543C614.4,433.543,102.4,433.543,102.4,433.543M102.4,367.714C102.4,367.714,102.4,367.714,102.4,367.714C102.4,367.714,928.914,367.714,928.914,367.714C928.914,367.714,928.914,367.714,928.914,367.714C928.914,367.714,102.4,367.714,102.4,367.714M102.4,301.886C102.4,301.886,102.4,301.886,102.4,301.886C102.4,301.886,928.914,301.886,928.914,301.886C928.914,301.886,928.914,301.886,928.914,301.886C928.914,301.886,102.4,301.886,102.4,301.886M102.4,236.057C102.4,236.057,102.4,236.057,102.4,236.057C102.4,236.057,138.971,236.057,138.971,236.057C138.971,236.057,138.971,236.057,138.971,236.057C138.971,236.057,102.4,236.057,102.4,236.057M168.229,236.057C168.229,236.057,168.229,236.057,168.229,236.057C168.229,236.057,387.657,236.057,387.657,236.057C387.657,236.057,387.657,236.057,387.657,236.057C387.657,236.057,168.229,236.057,168.229,236.057M416.914,236.057C416.914,236.057,416.914,236.057,416.914,236.057C416.914,236.057,928.914,236.057,928.914,236.057C928.914,236.057,928.914,236.057,928.914,236.057C928.914,236.057,416.914,236.057,416.914,236.057M102.4,170.229C102.4,170.229,102.4,170.229,102.4,170.229C102.4,170.229,138.971,170.229,138.971,170.229C138.971,170.229,138.971,170.229,138.971,170.229C138.971,170.229,102.4,170.229,102.4,170.229M168.229,170.229C168.229,170.229,168.229,170.229,168.229,170.229C168.229,170.229,387.657,170.229,387.657,170.229C387.657,170.229,387.657,170.229,387.657,170.229C387.657,170.229,168.229,170.229,168.229,170.229M416.914,170.229C416.914,170.229,416.914,170.229,416.914,170.229C416.914,170.229,943.543,170.229,943.543,170.229C943.543,170.229,943.543,170.229,943.543,170.229C943.543,170.229,416.914,170.229,416.914,170.229" class="myicon-Group-93"/><glyph unicode="&#x004e;" d="C0,1022.343,0,839.486,0,839.486C0,839.486,1024,839.486,1024,839.486C1024,839.486,1024,1022.343,1024,1022.343C1024,1022.343,0,1022.343,0,1022.343M3.657,1018.686C3.657,1018.686,3.657,2,3.657,2C3.657,2,1020.343,2,1020.343,2C1020.343,2,1020.343,1018.686,1020.343,1018.686C1020.343,1018.686,3.657,1018.686,3.657,1018.686M102.4,711.486C102.4,711.486,102.4,733.429,102.4,733.429C102.4,733.429,928.914,733.429,928.914,733.429C928.914,733.429,928.914,711.486,928.914,711.486C928.914,711.486,102.4,711.486,102.4,711.486M106.057,631.029C106.057,631.029,106.057,433.543,106.057,433.543C106.057,433.543,376.686,433.543,376.686,433.543C376.686,433.543,376.686,631.029,376.686,631.029C376.686,631.029,106.057,631.029,106.057,631.029M416.914,631.029C416.914,631.029,416.914,631.029,416.914,631.029C416.914,631.029,928.914,631.029,928.914,631.029C928.914,631.029,928.914,631.029,928.914,631.029C928.914,631.029,416.914,631.029,416.914,631.029M416.914,565.2C416.914,565.2,416.914,565.2,416.914,565.2C416.914,565.2,928.914,565.2,928.914,565.2C928.914,565.2,928.914,565.2,928.914,565.2C928.914,565.2,416.914,565.2,416.914,565.2M416.914,499.371C416.914,499.371,416.914,499.371,416.914,499.371C416.914,499.371,928.914,499.371,928.914,499.371C928.914,499.371,928.914,499.371,928.914,499.371C928.914,499.371,416.914,499.371,416.914,499.371M416.914,433.543C416.914,433.543,416.914,433.543,416.914,433.543C416.914,433.543,928.914,433.543,928.914,433.543C928.914,433.543,928.914,433.543,928.914,433.543C928.914,433.543,416.914,433.543,416.914,433.543M102.4,367.714C102.4,367.714,102.4,367.714,102.4,367.714C102.4,367.714,928.914,367.714,928.914,367.714C928.914,367.714,928.914,367.714,928.914,367.714C928.914,367.714,102.4,367.714,102.4,367.714M102.4,301.886C102.4,301.886,102.4,301.886,102.4,301.886C102.4,301.886,928.914,301.886,928.914,301.886C928.914,301.886,928.914,301.886,928.914,301.886C928.914,301.886,102.4,301.886,102.4,301.886M102.4,236.057C102.4,236.057,102.4,236.057,102.4,236.057C102.4,236.057,138.971,236.057,138.971,236.057C138.971,236.057,138.971,236.057,138.971,236.057C138.971,236.057,102.4,236.057,102.4,236.057M168.229,236.057C168.229,236.057,168.229,236.057,168.229,236.057C168.229,236.057,387.657,236.057,387.657,236.057C387.657,236.057,387.657,236.057,387.657,236.057C387.657,236.057,168.229,236.057,168.229,236.057M416.914,236.057C416.914,236.057,416.914,236.057,416.914,236.057C416.914,236.057,928.914,236.057,928.914,236.057C928.914,236.057,928.914,236.057,928.914,236.057C928.914,236.057,416.914,236.057,416.914,236.057M102.4,170.229C102.4,170.229,102.4,170.229,102.4,170.229C102.4,170.229,138.971,170.229,138.971,170.229C138.971,170.229,138.971,170.229,138.971,170.229C138.971,170.229,102.4,170.229,102.4,170.229M168.229,170.229C168.229,170.229,168.229,170.229,168.229,170.229C168.229,170.229,387.657,170.229,387.657,170.229C387.657,170.229,387.657,170.229,387.657,170.229C387.657,170.229,168.229,170.229,168.229,170.229M416.914,170.229C416.914,170.229,416.914,170.229,416.914,170.229C416.914,170.229,943.543,170.229,943.543,170.229C943.543,170.229,943.543,170.229,943.543,170.229C943.543,170.229,416.914,170.229,416.914,170.229" class="myicon-Group-94"/><glyph unicode="&#x004f;" d="C0,1022.343,0,839.486,0,839.486C0,839.486,1024,839.486,1024,839.486C1024,839.486,1024,1022.343,1024,1022.343C1024,1022.343,0,1022.343,0,1022.343M3.657,1018.686C3.657,1018.686,3.657,2,3.657,2C3.657,2,1020.343,2,1020.343,2C1020.343,2,1020.343,1018.686,1020.343,1018.686C1020.343,1018.686,3.657,1018.686,3.657,1018.686M102.4,711.486C102.4,711.486,102.4,733.429,102.4,733.429C102.4,733.429,928.914,733.429,928.914,733.429C928.914,733.429,928.914,711.486,928.914,711.486C928.914,711.486,102.4,711.486,102.4,711.486M106.057,631.029C106.057,631.029,106.057,477.429,106.057,477.429C106.057,477.429,925.257,477.429,925.257,477.429C925.257,477.429,925.257,631.029,925.257,631.029C925.257,631.029,106.057,631.029,106.057,631.029M102.4,426.229C102.4,426.229,102.4,426.229,102.4,426.229C102.4,426.229,928.914,426.229,928.914,426.229C928.914,426.229,928.914,426.229,928.914,426.229C928.914,426.229,102.4,426.229,102.4,426.229M102.4,360.4C102.4,360.4,102.4,360.4,102.4,360.4C102.4,360.4,928.914,360.4,928.914,360.4C928.914,360.4,928.914,360.4,928.914,360.4C928.914,360.4,102.4,360.4,102.4,360.4M102.4,294.571C102.4,294.571,102.4,294.571,102.4,294.571C102.4,294.571,928.914,294.571,928.914,294.571C928.914,294.571,928.914,294.571,928.914,294.571C928.914,294.571,102.4,294.571,102.4,294.571M102.4,228.743C102.4,228.743,102.4,228.743,102.4,228.743C102.4,228.743,138.971,228.743,138.971,228.743C138.971,228.743,138.971,228.743,138.971,228.743C138.971,228.743,102.4,228.743,102.4,228.743M168.229,228.743C168.229,228.743,168.229,228.743,168.229,228.743C168.229,228.743,387.657,228.743,387.657,228.743C387.657,228.743,387.657,228.743,387.657,228.743C387.657,228.743,168.229,228.743,168.229,228.743M416.914,228.743C416.914,228.743,416.914,228.743,416.914,228.743C416.914,228.743,877.714,228.743,877.714,228.743C877.714,228.743,877.714,228.743,877.714,228.743C877.714,228.743,416.914,228.743,416.914,228.743M102.4,162.914C102.4,162.914,102.4,162.914,102.4,162.914C102.4,162.914,138.335,162.914,138.335,162.914C138.335,162.914,138.335,162.914,138.335,162.914C138.335,162.914,102.4,162.914,102.4,162.914M167.08,162.914C167.08,162.914,167.08,162.914,167.08,162.914C167.08,162.914,382.698,162.914,382.698,162.914C382.691,162.914,382.691,162.914,382.691,162.914C382.691,162.914,167.08,162.914,167.08,162.914M409.6,162.914C409.6,162.914,409.6,162.914,409.6,162.914C409.6,162.914,877.714,162.914,877.714,162.914C877.714,162.914,877.714,162.914,877.714,162.914C877.714,162.914,409.6,162.914,409.6,162.914" class="myicon-Group-100"/><glyph unicode="&#x0050;" d="M938.679,932.643C938.679,932.643,85.358,932.643,85.358,932.643C38.217,932.643,0,892.268,0,842.531C0,842.531,0,181.612,0,181.612C0,131.875,38.217,91.5,85.358,91.5C85.358,91.5,938.679,91.5,938.679,91.5C985.783,91.5,1024,131.875,1024,181.612C1024,181.612,1024,842.531,1024,842.531C1024,892.268,985.783,932.643,938.679,932.643C938.679,932.643,938.679,932.643,938.679,932.643M312.905,752.382C375.662,752.382,426.679,698.513,426.679,632.245C426.679,565.941,375.662,512.071,312.905,512.071C250.149,512.071,199.131,565.941,199.131,632.245C199.131,698.513,250.149,752.382,312.905,752.382C312.905,752.382,312.905,752.382,312.905,752.382M512,307.783C512,287.889,494.226,271.761,472.174,271.761C472.174,271.761,153.6,271.761,153.6,271.761C131.584,271.761,113.774,287.889,113.774,307.783C113.774,307.783,113.774,343.843,113.774,343.843C113.774,403.564,167.314,451.985,233.253,451.985C233.253,451.985,242.139,451.985,242.139,451.985C264.009,442.403,287.817,436.954,312.905,436.954C337.957,436.954,361.984,442.403,383.671,451.985C383.671,451.985,392.558,451.985,392.558,451.985C458.496,451.985,512,403.564,512,343.843C512,343.843,512,307.783,512,307.783C512,307.783,512,307.783,512,307.783M910.226,406.929C910.226,398.663,903.826,391.898,896,391.898C896,391.898,640,391.898,640,391.898C632.174,391.898,625.774,398.663,625.774,406.929C625.774,406.929,625.774,436.954,625.774,436.954C625.774,445.219,632.174,451.985,640,451.985C640,451.985,896,451.985,896,451.985C903.826,451.985,910.226,445.219,910.226,436.954C910.226,436.954,910.226,406.929,910.226,406.929C910.226,406.929,910.226,406.929,910.226,406.929M910.226,527.102C910.226,518.837,903.826,512.071,896,512.071C896,512.071,640,512.071,640,512.071C632.174,512.071,625.774,518.837,625.774,527.102C625.774,527.102,625.774,557.127,625.774,557.127C625.774,565.393,632.174,572.158,640,572.158C640,572.158,896,572.158,896,572.158C903.826,572.158,910.226,565.393,910.226,557.127C910.226,557.127,910.226,527.102,910.226,527.102C910.226,527.102,910.226,527.102,910.226,527.102M910.226,647.239C910.226,639.011,903.826,632.245,896,632.245C896,632.245,640,632.245,640,632.245C632.174,632.245,625.774,639.011,625.774,647.239C625.774,647.239,625.774,677.301,625.774,677.301C625.774,685.566,632.174,692.332,640,692.332C640,692.332,896,692.332,896,692.332C903.826,692.332,910.226,685.566,910.226,677.301C910.226,677.301,910.226,647.239,910.226,647.239C910.226,647.239,910.226,647.239,910.226,647.239" class="myicon-Identification-card"/><glyph unicode="&#x0051;" d="M0.183,775.924C0.183,775.924,512,520.034,512,520.034C512,520.034,1023.781,775.924,1023.781,775.924C1021.915,808.546,1007.616,839.193,983.845,861.611C960.073,884.029,928.658,896.5,896,896.5C896,896.5,128,896.5,128,896.5C95.342,896.5,63.89,884.029,40.119,861.611C16.384,839.193,2.085,808.546,0.183,775.924C0.183,775.924,0.183,775.924,0.183,775.924M1024,632.93C1024,632.93,512,376.93,512,376.93C512,376.93,0,632.93,0,632.93C0,632.93,0,256.5,0,256.5C0,222.562,13.495,189.977,37.486,165.986C61.513,141.995,94.062,128.5,128,128.5C128,128.5,896,128.5,896,128.5C929.938,128.5,962.523,141.995,986.514,165.986C1010.505,189.977,1024,222.562,1024,256.5C1024,256.5,1024,632.93,1024,632.93C1024,632.93,1024,632.93,1024,632.93" class="myicon-mail"/><glyph unicode="&#x0052;" d="M853.833,114.278C853.833,114.278,171.167,114.278,171.167,114.278C139.878,114.278,114.278,139.878,114.278,171.167C114.278,171.167,114.278,853.833,114.278,853.833C114.278,885.122,139.878,910.722,171.167,910.722C171.167,910.722,455.611,910.722,455.611,910.722C486.9,910.722,512.5,936.322,512.5,967.611C512.5,998.9,486.9,1024.5,455.611,1024.5C455.611,1024.5,114.278,1024.5,114.278,1024.5C84.127,1024.5,55.17,1012.496,33.837,991.163C12.504,969.83,0.5,940.873,0.5,910.722C0.5,910.722,0.5,114.278,0.5,114.278C0.5,51.7,51.7,0.5,114.278,0.5C114.278,0.5,910.722,0.5,910.722,0.5C973.3,0.5,1024.5,51.7,1024.5,114.278C1024.5,114.278,1024.5,455.611,1024.5,455.611C1024.5,486.9,998.9,512.5,967.611,512.5C936.322,512.5,910.722,486.9,910.722,455.611C910.722,455.611,910.722,171.167,910.722,171.167C910.722,139.878,885.122,114.278,853.833,114.278C853.833,114.278,853.833,114.278,853.833,114.278M626.278,967.611C626.278,936.322,651.878,910.722,683.167,910.722C683.167,910.722,830.509,910.722,830.509,910.722C830.509,910.722,398.722,478.936,398.722,478.936C388.084,468.297,382.111,453.848,382.111,438.829C382.111,423.81,388.084,409.36,398.722,398.722C409.36,388.084,423.81,382.111,438.829,382.111C453.848,382.111,468.297,388.084,478.936,398.722C478.936,398.722,910.722,830.509,910.722,830.509C910.722,830.509,910.722,683.167,910.722,683.167C910.722,651.878,936.322,626.278,967.611,626.278C998.9,626.278,1024.5,651.878,1024.5,683.167C1024.5,683.167,1024.5,967.611,1024.5,967.611C1024.5,998.9,998.9,1024.5,967.611,1024.5C967.611,1024.5,683.167,1024.5,683.167,1024.5C651.878,1024.5,626.278,998.9,626.278,967.611C626.278,967.611,626.278,967.611,626.278,967.611" class="myicon-open"/><glyph unicode="&#x0053;" d="M0,750.536C0,770.254,16.003,786.257,35.722,786.257C35.722,786.257,988.278,786.257,988.278,786.257C1007.997,786.257,1024,770.254,1024,750.536C1024,730.817,1007.997,714.814,988.278,714.814C988.278,714.814,35.722,714.814,35.722,714.814C16.003,714.814,0,730.817,0,750.536C0,750.536,0,750.536,0,750.536M0,512.414C0,532.133,16.003,548.136,35.722,548.136C35.722,548.136,988.278,548.136,988.278,548.136C1007.997,548.136,1024,532.133,1024,512.414C1024,492.625,1007.997,476.693,988.278,476.693C988.278,476.693,35.722,476.693,35.722,476.693C16.003,476.693,0,492.625,0,512.414C0,512.414,0,512.414,0,512.414M0,274.222C0,293.94,16.003,309.944,35.722,309.944C35.722,309.944,988.278,309.944,988.278,309.944C1007.997,309.944,1024,293.94,1024,274.222C1024,254.503,1007.997,238.5,988.278,238.5C988.278,238.5,35.722,238.5,35.722,238.5C16.003,238.5,0,254.503,0,274.222C0,274.222,0,274.222,0,274.222" class="myicon-openmoji_hamburger-menu"/><glyph unicode="&#x0054;" d="M448,128C448,128,384,128,384,192C384,256,448,448,704,448C960,448,1024,256,1024,192C1024,128,960,128,960,128C960,128,448,128,448,128C448,128,448,128,448,128M704,512C754.912,512,803.744,532.224,839.776,568.224C875.776,604.256,896,653.088,896,704C896,754.912,875.776,803.744,839.776,839.776C803.744,875.776,754.912,896,704,896C653.088,896,604.256,875.776,568.224,839.776C532.224,803.744,512,754.912,512,704C512,653.088,532.224,604.256,568.224,568.224C604.256,532.224,653.088,512,704,512C704,512,704,512,704,512M333.824,128C324.352,147.968,319.616,169.888,320,192C320,278.72,363.52,368,443.904,430.08C403.776,442.432,361.984,448.48,320,448C64,448,0,256,0,192C0,128,64,128,64,128C64,128,333.824,128,333.824,128C333.824,128,333.824,128,333.824,128M288,512C330.432,512,371.136,528.864,401.152,558.848C431.136,588.864,448,629.568,448,672C448,714.432,431.136,755.136,401.152,785.152C371.136,815.136,330.432,832,288,832C245.568,832,204.864,815.136,174.848,785.152C144.864,755.136,128,714.432,128,672C128,629.568,144.864,588.864,174.848,558.848C204.864,528.864,245.568,512,288,512C288,512,288,512,288,512" class="myicon-twoPeople"/><glyph unicode="&#x0055;" d="M153.6,563.6C210.074,563.6,256,609.526,256,666C256,722.474,210.074,768.4,153.6,768.4C97.126,768.4,51.2,722.474,51.2,666C51.2,609.526,97.126,563.6,153.6,563.6C153.6,563.6,153.6,563.6,153.6,563.6M870.4,563.6C926.874,563.6,972.8,609.526,972.8,666C972.8,722.474,926.874,768.4,870.4,768.4C813.926,768.4,768,722.474,768,666C768,609.526,813.926,563.6,870.4,563.6C870.4,563.6,870.4,563.6,870.4,563.6M921.6,512.4C921.6,512.4,819.2,512.4,819.2,512.4C791.04,512.4,765.594,501.034,747.059,482.653C811.52,447.274,857.293,383.427,867.174,307.6C867.174,307.6,972.8,307.6,972.8,307.6C1001.114,307.6,1024,330.486,1024,358.8C1024,358.8,1024,410,1024,410C1024,466.474,978.074,512.4,921.6,512.4C921.6,512.4,921.6,512.4,921.6,512.4M512,512.4C611.021,512.4,691.2,592.579,691.2,691.6C691.2,790.621,611.021,870.8,512,870.8C412.979,870.8,332.8,790.621,332.8,691.6C332.8,592.579,412.979,512.4,512,512.4C512,512.4,512,512.4,512,512.4M634.88,461.2C634.88,461.2,621.619,461.2,621.619,461.2C588.339,445.174,551.373,435.6,512,435.6C472.627,435.6,435.814,445.226,402.381,461.2C402.381,461.2,389.12,461.2,389.12,461.2C287.386,461.2,204.8,378.614,204.8,276.88C204.8,276.88,204.8,230.8,204.8,230.8C204.8,188.406,239.206,154,281.6,154C281.6,154,742.4,154,742.4,154C784.794,154,819.2,188.406,819.2,230.8C819.2,230.8,819.2,276.88,819.2,276.88C819.2,378.666,736.614,461.2,634.88,461.2C634.88,461.2,634.88,461.2,634.88,461.2M276.941,482.653C258.406,501.034,232.96,512.4,204.8,512.4C204.8,512.4,102.4,512.4,102.4,512.4C45.926,512.4,0,466.474,0,410C0,410,0,358.8,0,358.8C0,330.486,22.886,307.6,51.2,307.6C51.2,307.6,156.621,307.6,156.621,307.6C166.707,383.427,212.48,447.274,276.941,482.653C276.941,482.653,276.941,482.653,276.941,482.653" class="myicon-user-role"/><glyph unicode="&#x0056;" d="M512.494,1024C512.494,1024,17,528.506,17,528.506C17,528.506,314.296,528.506,314.296,528.506C314.296,528.506,314.296,0,314.296,0C314.296,0,710.691,0,710.691,0C710.691,0,710.691,528.506,710.691,528.506C710.691,528.506,1007.988,528.506,1007.988,528.506C1007.988,528.506,512.494,1024,512.494,1024C512.494,1024,512.494,1024,512.494,1024" class="myicon-arrow-up-2"/><glyph unicode="&#x0057;" d="M512.494,0.5C512.494,0.5,1007.988,495.994,1007.988,495.994C1007.988,495.994,710.691,495.994,710.691,495.994C710.691,495.994,710.691,1024.5,710.691,1024.5C710.691,1024.5,314.296,1024.5,314.296,1024.5C314.296,1024.5,314.296,495.994,314.296,495.994C314.296,495.994,17,495.994,17,495.994C17,495.994,512.494,0.5,512.494,0.5C512.494,0.5,512.494,0.5,512.494,0.5" class="myicon-arrow-down-2"/></font>
</defs>
</svg>
