<svg width="24" height="24" viewBox="0 0 24 24" fill="#606266" xmlns="http://www.w3.org/2000/svg">
<path d="M3 10.7143H10.7143V3H3V10.7143ZM5.57143 5.57143H8.14286V8.14286H5.57143V5.57143ZM13.2857 3V10.7143H21V3H13.2857ZM18.4286 8.14286H15.8571V5.57143H18.4286V8.14286ZM3 21H10.7143V13.2857H3V21ZM5.57143 15.8571H8.14286V18.4286H5.57143V15.8571ZM19.7143 13.2857H21V18.4286H17.1429V17.1429H15.8571V21H13.2857V13.2857H17.1429V14.5714H19.7143V13.2857ZM19.7143 19.7143H21V21H19.7143V19.7143ZM17.1429 19.7143H18.4286V21H17.1429V19.7143Z" />
</svg>
